<mxfile host="app.diagrams.net" modified="2024-06-08T15:13:45.331Z" agent="Mozilla/5.0 (Windows NT 10.0; Win64; x64) AppleWebKit/537.36 (KHTML, like Gecko) Chrome/125.0.0.0 Safari/537.36 Edg/125.0.0.0" etag="erHM6K6S103DISLLXebi" version="24.5.2" type="device">
  <diagram name="Page-1" id="aB-AKYa4uGkAp5nFMPeD">
    <mxGraphModel dx="1794" dy="823" grid="1" gridSize="10" guides="1" tooltips="1" connect="1" arrows="1" fold="1" page="1" pageScale="1" pageWidth="850" pageHeight="1100" math="0" shadow="0">
      <root>
        <mxCell id="0" />
        <mxCell id="1" parent="0" />
        <mxCell id="WDajsYb6U0dOoKer0U97-97" value="" style="rounded=1;whiteSpace=wrap;html=1;absoluteArcSize=1;arcSize=14;strokeWidth=2;fillColor=#f5f5f5;fontColor=#333333;strokeColor=#666666;" parent="1" vertex="1">
          <mxGeometry x="300" y="350" width="446" height="520" as="geometry" />
        </mxCell>
        <mxCell id="WDajsYb6U0dOoKer0U97-91" value="" style="rounded=1;whiteSpace=wrap;html=1;absoluteArcSize=1;arcSize=14;strokeWidth=2;fillColor=#f5f5f5;fontColor=#333333;strokeColor=#666666;" parent="1" vertex="1">
          <mxGeometry x="20" y="240" width="200" height="470" as="geometry" />
        </mxCell>
        <mxCell id="WDajsYb6U0dOoKer0U97-50" style="edgeStyle=orthogonalEdgeStyle;rounded=0;orthogonalLoop=1;jettySize=auto;html=1;entryX=0.5;entryY=0;entryDx=0;entryDy=0;" parent="1" source="WDajsYb6U0dOoKer0U97-1" target="WDajsYb6U0dOoKer0U97-49" edge="1">
          <mxGeometry relative="1" as="geometry" />
        </mxCell>
        <mxCell id="WDajsYb6U0dOoKer0U97-1" value="create_yolo_images.ipynb" style="rounded=1;whiteSpace=wrap;html=1;fillColor=#99CCFF;" parent="1" vertex="1">
          <mxGeometry x="40" y="260" width="160" height="30" as="geometry" />
        </mxCell>
        <mxCell id="WDajsYb6U0dOoKer0U97-92" value="&lt;span style=&quot;font-weight: 700;&quot;&gt;Not needed if YOLO&lt;br&gt;&lt;/span&gt;&lt;b&gt;model has already&lt;br style=&quot;&quot;&gt;&lt;/b&gt;&lt;span style=&quot;font-weight: 700;&quot;&gt;been trained&lt;/span&gt;" style="edgeStyle=orthogonalEdgeStyle;rounded=0;orthogonalLoop=1;jettySize=auto;html=1;exitX=0.5;exitY=1;exitDx=0;exitDy=0;" parent="1" source="WDajsYb6U0dOoKer0U97-115" target="WDajsYb6U0dOoKer0U97-1" edge="1">
          <mxGeometry x="-0.0769" relative="1" as="geometry">
            <mxPoint x="-120" y="110" as="sourcePoint" />
            <mxPoint as="offset" />
          </mxGeometry>
        </mxCell>
        <mxCell id="WDajsYb6U0dOoKer0U97-89" style="edgeStyle=orthogonalEdgeStyle;rounded=0;orthogonalLoop=1;jettySize=auto;html=1;exitX=0.5;exitY=1;exitDx=0;exitDy=0;entryX=0.5;entryY=0;entryDx=0;entryDy=0;" parent="1" source="WDajsYb6U0dOoKer0U97-49" target="WDajsYb6U0dOoKer0U97-51" edge="1">
          <mxGeometry relative="1" as="geometry" />
        </mxCell>
        <mxCell id="WDajsYb6U0dOoKer0U97-49" value="YOLO Data Images" style="rhombus;whiteSpace=wrap;html=1;fillColor=#33FF99;" parent="1" vertex="1">
          <mxGeometry x="70" y="330" width="100" height="90" as="geometry" />
        </mxCell>
        <mxCell id="WDajsYb6U0dOoKer0U97-58" style="edgeStyle=orthogonalEdgeStyle;rounded=0;orthogonalLoop=1;jettySize=auto;html=1;exitX=0.5;exitY=1;exitDx=0;exitDy=0;entryX=0.5;entryY=0;entryDx=0;entryDy=0;" parent="1" source="WDajsYb6U0dOoKer0U97-51" target="WDajsYb6U0dOoKer0U97-53" edge="1">
          <mxGeometry relative="1" as="geometry" />
        </mxCell>
        <mxCell id="WDajsYb6U0dOoKer0U97-51" value="RoboFlow (annotation tool)" style="rounded=1;whiteSpace=wrap;html=1;fillColor=#99CCFF;" parent="1" vertex="1">
          <mxGeometry x="40" y="460" width="160" height="30" as="geometry" />
        </mxCell>
        <mxCell id="WDajsYb6U0dOoKer0U97-55" style="edgeStyle=orthogonalEdgeStyle;rounded=0;orthogonalLoop=1;jettySize=auto;html=1;entryX=0.5;entryY=0;entryDx=0;entryDy=0;" parent="1" source="WDajsYb6U0dOoKer0U97-53" target="WDajsYb6U0dOoKer0U97-54" edge="1">
          <mxGeometry relative="1" as="geometry" />
        </mxCell>
        <mxCell id="WDajsYb6U0dOoKer0U97-53" value="YOLO Dataset" style="rhombus;whiteSpace=wrap;html=1;fillColor=#33FF99;" parent="1" vertex="1">
          <mxGeometry x="70" y="530" width="100" height="90" as="geometry" />
        </mxCell>
        <mxCell id="_KZC26SDWzeLGglr0-F0-9" style="edgeStyle=orthogonalEdgeStyle;rounded=0;orthogonalLoop=1;jettySize=auto;html=1;exitX=1;exitY=0.5;exitDx=0;exitDy=0;entryX=0.5;entryY=1;entryDx=0;entryDy=0;" parent="1" source="WDajsYb6U0dOoKer0U97-54" target="WDajsYb6U0dOoKer0U97-56" edge="1">
          <mxGeometry relative="1" as="geometry" />
        </mxCell>
        <mxCell id="WDajsYb6U0dOoKer0U97-54" value="yolo_training.ipynb" style="rounded=1;whiteSpace=wrap;html=1;fillColor=#99CCFF;" parent="1" vertex="1">
          <mxGeometry x="40" y="660" width="160" height="30" as="geometry" />
        </mxCell>
        <mxCell id="WDajsYb6U0dOoKer0U97-95" style="edgeStyle=orthogonalEdgeStyle;rounded=0;orthogonalLoop=1;jettySize=auto;html=1;exitX=0.5;exitY=0;exitDx=0;exitDy=0;entryX=0;entryY=0.5;entryDx=0;entryDy=0;" parent="1" source="WDajsYb6U0dOoKer0U97-56" target="WDajsYb6U0dOoKer0U97-59" edge="1">
          <mxGeometry relative="1" as="geometry">
            <mxPoint x="260" y="90" as="targetPoint" />
          </mxGeometry>
        </mxCell>
        <mxCell id="WDajsYb6U0dOoKer0U97-56" value="Trained &lt;br&gt;YOLO Model" style="rhombus;whiteSpace=wrap;html=1;fillColor=#33FF99;" parent="1" vertex="1">
          <mxGeometry x="210" y="145" width="100" height="90" as="geometry" />
        </mxCell>
        <mxCell id="_KZC26SDWzeLGglr0-F0-3" style="edgeStyle=orthogonalEdgeStyle;rounded=0;orthogonalLoop=1;jettySize=auto;html=1;exitX=1;exitY=0.5;exitDx=0;exitDy=0;entryX=0.5;entryY=0;entryDx=0;entryDy=0;" parent="1" source="WDajsYb6U0dOoKer0U97-59" target="_KZC26SDWzeLGglr0-F0-2" edge="1">
          <mxGeometry relative="1" as="geometry" />
        </mxCell>
        <mxCell id="_KZC26SDWzeLGglr0-F0-4" style="edgeStyle=orthogonalEdgeStyle;rounded=0;orthogonalLoop=1;jettySize=auto;html=1;exitX=0.5;exitY=1;exitDx=0;exitDy=0;entryX=0.5;entryY=0;entryDx=0;entryDy=0;" parent="1" source="WDajsYb6U0dOoKer0U97-59" target="WDajsYb6U0dOoKer0U97-62" edge="1">
          <mxGeometry relative="1" as="geometry" />
        </mxCell>
        <mxCell id="WDajsYb6U0dOoKer0U97-59" value="initialize_experiment.ipynb" style="rounded=1;whiteSpace=wrap;html=1;fillColor=#99CCFF;" parent="1" vertex="1">
          <mxGeometry x="425" y="78" width="160" height="30" as="geometry" />
        </mxCell>
        <mxCell id="WDajsYb6U0dOoKer0U97-107" value="&lt;b&gt;Not needed if&amp;nbsp;&lt;br&gt;predictor has already&lt;br&gt;been trained&lt;/b&gt;" style="edgeStyle=orthogonalEdgeStyle;rounded=0;orthogonalLoop=1;jettySize=auto;html=1;exitX=0.5;exitY=1;exitDx=0;exitDy=0;entryX=0.5;entryY=0;entryDx=0;entryDy=0;" parent="1" source="WDajsYb6U0dOoKer0U97-62" target="WDajsYb6U0dOoKer0U97-69" edge="1">
          <mxGeometry x="0.3368" relative="1" as="geometry">
            <mxPoint as="offset" />
          </mxGeometry>
        </mxCell>
        <mxCell id="WDajsYb6U0dOoKer0U97-109" value="&lt;b&gt;Not needed if&lt;br&gt;already exists &lt;br&gt;a matching polyfit &lt;br&gt;config file&lt;/b&gt;" style="edgeStyle=orthogonalEdgeStyle;rounded=0;orthogonalLoop=1;jettySize=auto;html=1;entryX=0.5;entryY=0;entryDx=0;entryDy=0;exitX=1;exitY=0.5;exitDx=0;exitDy=0;" parent="1" source="WDajsYb6U0dOoKer0U97-62" target="WDajsYb6U0dOoKer0U97-70" edge="1">
          <mxGeometry x="0.36" relative="1" as="geometry">
            <mxPoint x="616" y="240" as="sourcePoint" />
            <mxPoint as="offset" />
          </mxGeometry>
        </mxCell>
        <mxCell id="WDajsYb6U0dOoKer0U97-62" value="Initial Log File (init_bboxes.csv)" style="rhombus;whiteSpace=wrap;html=1;fillColor=#33FF99;" parent="1" vertex="1">
          <mxGeometry x="440" y="165" width="130" height="110" as="geometry" />
        </mxCell>
        <mxCell id="WDajsYb6U0dOoKer0U97-80" style="edgeStyle=orthogonalEdgeStyle;rounded=0;orthogonalLoop=1;jettySize=auto;html=1;entryX=0.5;entryY=0;entryDx=0;entryDy=0;" parent="1" source="WDajsYb6U0dOoKer0U97-64" target="WDajsYb6U0dOoKer0U97-79" edge="1">
          <mxGeometry relative="1" as="geometry" />
        </mxCell>
        <mxCell id="WDajsYb6U0dOoKer0U97-64" value="" style="rounded=1;absoluteArcSize=1;html=1;arcSize=17;fillColor=#99CCFF;" parent="1" vertex="1">
          <mxGeometry x="320" y="780" width="400" height="70" as="geometry" />
        </mxCell>
        <mxCell id="WDajsYb6U0dOoKer0U97-65" value="simulate.ipynb" style="html=1;shape=mxgraph.er.anchor;whiteSpace=wrap;" parent="WDajsYb6U0dOoKer0U97-64" vertex="1">
          <mxGeometry width="120" height="70" as="geometry" />
        </mxCell>
        <mxCell id="WDajsYb6U0dOoKer0U97-66" value="Polyfit Controller" style="rounded=1;absoluteArcSize=1;html=1;arcSize=10;whiteSpace=wrap;points=[];strokeColor=inherit;fillColor=inherit;" parent="WDajsYb6U0dOoKer0U97-64" vertex="1">
          <mxGeometry x="260" y="20" width="130" height="30" as="geometry" />
        </mxCell>
        <mxCell id="WDajsYb6U0dOoKer0U97-67" value="MLP Controller" style="rounded=1;absoluteArcSize=1;html=1;arcSize=10;whiteSpace=wrap;points=[];strokeColor=inherit;fillColor=inherit;" parent="WDajsYb6U0dOoKer0U97-64" vertex="1">
          <mxGeometry x="120" y="20" width="130" height="30" as="geometry" />
        </mxCell>
        <mxCell id="WDajsYb6U0dOoKer0U97-74" value="" style="edgeStyle=orthogonalEdgeStyle;rounded=0;orthogonalLoop=1;jettySize=auto;html=1;entryX=0.5;entryY=0;entryDx=0;entryDy=0;fontStyle=1" parent="1" source="WDajsYb6U0dOoKer0U97-69" target="WDajsYb6U0dOoKer0U97-73" edge="1">
          <mxGeometry relative="1" as="geometry" />
        </mxCell>
        <mxCell id="WDajsYb6U0dOoKer0U97-69" value="predictor_training.ipynb" style="rounded=1;whiteSpace=wrap;html=1;fillColor=#99CCFF;" parent="1" vertex="1">
          <mxGeometry x="425" y="450" width="160" height="30" as="geometry" />
        </mxCell>
        <mxCell id="WDajsYb6U0dOoKer0U97-76" value="" style="edgeStyle=orthogonalEdgeStyle;rounded=0;orthogonalLoop=1;jettySize=auto;html=1;entryX=0.5;entryY=0;entryDx=0;entryDy=0;fontStyle=1" parent="1" source="WDajsYb6U0dOoKer0U97-70" target="WDajsYb6U0dOoKer0U97-75" edge="1">
          <mxGeometry relative="1" as="geometry" />
        </mxCell>
        <mxCell id="WDajsYb6U0dOoKer0U97-70" value="polyfit_optimizer.ipynb" style="rounded=1;whiteSpace=wrap;html=1;fillColor=#99CCFF;" parent="1" vertex="1">
          <mxGeometry x="565" y="520" width="160" height="30" as="geometry" />
        </mxCell>
        <mxCell id="WDajsYb6U0dOoKer0U97-77" style="edgeStyle=orthogonalEdgeStyle;rounded=0;orthogonalLoop=1;jettySize=auto;html=1;" parent="1" source="WDajsYb6U0dOoKer0U97-73" target="WDajsYb6U0dOoKer0U97-67" edge="1">
          <mxGeometry relative="1" as="geometry" />
        </mxCell>
        <mxCell id="WDajsYb6U0dOoKer0U97-73" value="Trained &lt;br&gt;Predictor Model" style="rhombus;whiteSpace=wrap;html=1;fillColor=#33FF99;" parent="1" vertex="1">
          <mxGeometry x="440" y="600" width="130" height="120" as="geometry" />
        </mxCell>
        <mxCell id="WDajsYb6U0dOoKer0U97-78" style="edgeStyle=orthogonalEdgeStyle;rounded=0;orthogonalLoop=1;jettySize=auto;html=1;" parent="1" source="WDajsYb6U0dOoKer0U97-75" target="WDajsYb6U0dOoKer0U97-66" edge="1">
          <mxGeometry relative="1" as="geometry" />
        </mxCell>
        <mxCell id="WDajsYb6U0dOoKer0U97-75" value="Polynomial &lt;br&gt;Degree and Weights (PolyfitConfig)" style="rhombus;whiteSpace=wrap;html=1;fillColor=#33FF99;" parent="1" vertex="1">
          <mxGeometry x="580" y="600" width="130" height="120" as="geometry" />
        </mxCell>
        <mxCell id="WDajsYb6U0dOoKer0U97-82" style="edgeStyle=orthogonalEdgeStyle;rounded=0;orthogonalLoop=1;jettySize=auto;html=1;entryX=0.5;entryY=0;entryDx=0;entryDy=0;" parent="1" source="WDajsYb6U0dOoKer0U97-79" target="WDajsYb6U0dOoKer0U97-81" edge="1">
          <mxGeometry relative="1" as="geometry" />
        </mxCell>
        <mxCell id="WDajsYb6U0dOoKer0U97-118" style="edgeStyle=orthogonalEdgeStyle;rounded=0;orthogonalLoop=1;jettySize=auto;html=1;exitX=0;exitY=0.5;exitDx=0;exitDy=0;entryX=0.5;entryY=0;entryDx=0;entryDy=0;" parent="1" source="WDajsYb6U0dOoKer0U97-79" edge="1">
          <mxGeometry relative="1" as="geometry">
            <mxPoint x="326" y="1040" as="targetPoint" />
          </mxGeometry>
        </mxCell>
        <mxCell id="WDajsYb6U0dOoKer0U97-79" value="Sim Log File (bboxes.csv)" style="rhombus;whiteSpace=wrap;html=1;fillColor=#33FF99;" parent="1" vertex="1">
          <mxGeometry x="470" y="900" width="100" height="90" as="geometry" />
        </mxCell>
        <mxCell id="WDajsYb6U0dOoKer0U97-81" value="analysis.ipynb" style="rounded=1;whiteSpace=wrap;html=1;fillColor=#99CCFF;" parent="1" vertex="1">
          <mxGeometry x="440" y="1020" width="160" height="30" as="geometry" />
        </mxCell>
        <mxCell id="WDajsYb6U0dOoKer0U97-116" style="edgeStyle=orthogonalEdgeStyle;rounded=0;orthogonalLoop=1;jettySize=auto;html=1;exitX=1;exitY=0.5;exitDx=0;exitDy=0;entryX=0.5;entryY=0;entryDx=0;entryDy=0;" parent="1" source="WDajsYb6U0dOoKer0U97-115" target="WDajsYb6U0dOoKer0U97-59" edge="1">
          <mxGeometry relative="1" as="geometry" />
        </mxCell>
        <mxCell id="WDajsYb6U0dOoKer0U97-115" value="&lt;b&gt;Raw&lt;/b&gt;&lt;br&gt;&lt;span style=&quot;forced-color-adjust: none; color: rgb(0, 0, 0); font-family: Helvetica; font-size: 12px; font-style: normal; font-variant-ligatures: normal; font-variant-caps: normal; letter-spacing: normal; orphans: 2; text-align: center; text-indent: 0px; text-transform: none; widows: 2; word-spacing: 0px; -webkit-text-stroke-width: 0px; white-space: normal; text-decoration-thickness: initial; text-decoration-style: initial; text-decoration-color: initial; float: none; display: inline !important;&quot;&gt;&lt;b style=&quot;&quot;&gt;Experiment Frames&lt;/b&gt;&lt;/span&gt;" style="ellipse;whiteSpace=wrap;html=1;aspect=fixed;fillColor=#FFFFCC;" parent="1" vertex="1">
          <mxGeometry x="80" y="19" width="80" height="80" as="geometry" />
        </mxCell>
        <mxCell id="WDajsYb6U0dOoKer0U97-117" value="visualize.ipynb" style="rounded=1;whiteSpace=wrap;html=1;fillColor=#99CCFF;" parent="1" vertex="1">
          <mxGeometry x="250" y="1020" width="160" height="30" as="geometry" />
        </mxCell>
        <mxCell id="_KZC26SDWzeLGglr0-F0-2" value="Background + Worm Images" style="rhombus;whiteSpace=wrap;html=1;fillColor=#33FF99;" parent="1" vertex="1">
          <mxGeometry x="720" y="170" width="110" height="100" as="geometry" />
        </mxCell>
        <mxCell id="_KZC26SDWzeLGglr0-F0-8" value="" style="html=1;labelBackgroundColor=#ffffff;startArrow=none;startFill=0;startSize=6;endArrow=classic;endFill=1;endSize=6;jettySize=auto;orthogonalLoop=1;strokeWidth=1;dashed=1;fontSize=14;rounded=0;exitX=0.5;exitY=1;exitDx=0;exitDy=0;entryX=1;entryY=0.5;entryDx=0;entryDy=0;" parent="1" source="_KZC26SDWzeLGglr0-F0-2" target="WDajsYb6U0dOoKer0U97-81" edge="1">
          <mxGeometry width="60" height="60" relative="1" as="geometry">
            <mxPoint x="790" y="290" as="sourcePoint" />
            <mxPoint x="830" y="360" as="targetPoint" />
            <Array as="points">
              <mxPoint x="775" y="1035" />
            </Array>
          </mxGeometry>
        </mxCell>
        <mxCell id="_KZC26SDWzeLGglr0-F0-13" value="Optional, used to calculate&amp;nbsp;&lt;br&gt;segmentation error&amp;nbsp;&lt;br&gt;based on worm images" style="edgeLabel;html=1;align=center;verticalAlign=middle;resizable=0;points=[];fontStyle=1" parent="_KZC26SDWzeLGglr0-F0-8" vertex="1" connectable="0">
          <mxGeometry x="0.4195" y="-1" relative="1" as="geometry">
            <mxPoint x="1" y="8" as="offset" />
          </mxGeometry>
        </mxCell>
        <mxCell id="_KZC26SDWzeLGglr0-F0-10" style="edgeStyle=orthogonalEdgeStyle;rounded=0;orthogonalLoop=1;jettySize=auto;html=1;exitX=0;exitY=0.5;exitDx=0;exitDy=0;entryX=0.125;entryY=0.004;entryDx=0;entryDy=0;entryPerimeter=0;" parent="1" source="WDajsYb6U0dOoKer0U97-62" target="WDajsYb6U0dOoKer0U97-64" edge="1">
          <mxGeometry relative="1" as="geometry">
            <Array as="points">
              <mxPoint x="370" y="220" />
            </Array>
          </mxGeometry>
        </mxCell>
      </root>
    </mxGraphModel>
  </diagram>
</mxfile>
